<mxfile host="drawio-plugin" modified="2022-09-09T17:57:06.326Z" agent="5.0 (X11; Linux x86_64) AppleWebKit/537.36 (KHTML, like Gecko) Chrome/98.0.4758.102 Safari/537.36" etag="UzNTPtXJix8rOiU_-tfK" version="15.5.4" type="embed"><diagram id="xk0LYboaFIT9QmwzVqD-" name="Page-1"><mxGraphModel dx="1386" dy="801" grid="0" gridSize="10" guides="1" tooltips="1" connect="1" arrows="1" fold="1" page="0" pageScale="1" pageWidth="827" pageHeight="1169" background="#282A36" math="0" shadow="0"><root><mxCell id="0"/><mxCell id="1" parent="0"/><mxCell id="69" value="" style="rounded=0;whiteSpace=wrap;html=1;strokeColor=none;strokeWidth=3;fillColor=#FF79C6;fontSize=13;fontColor=#F8F8F2;align=right;" parent="1" vertex="1"><mxGeometry x="-394" y="-136.5" width="20" height="20" as="geometry"/></mxCell><mxCell id="70" value="Model" style="text;html=1;resizable=0;points=[];autosize=1;align=left;verticalAlign=middle;spacingTop=-4;fontSize=13;fontColor=#F8F8F2;" parent="1" vertex="1"><mxGeometry x="-372" y="-134.5" width="45" height="16" as="geometry"/></mxCell><mxCell id="71" value="" style="rounded=0;whiteSpace=wrap;html=1;strokeColor=none;strokeWidth=3;fillColor=#BD93F9;fontSize=13;fontColor=#F8F8F2;align=right;" parent="1" vertex="1"><mxGeometry x="-394" y="-107.5" width="20" height="20" as="geometry"/></mxCell><mxCell id="72" value="Abstraction" style="text;html=1;resizable=0;points=[];autosize=1;align=left;verticalAlign=middle;spacingTop=-4;fontSize=13;fontColor=#F8F8F2;" parent="1" vertex="1"><mxGeometry x="-372" y="-105.5" width="75" height="16" as="geometry"/></mxCell><mxCell id="73" value="" style="rounded=0;whiteSpace=wrap;html=1;strokeColor=none;strokeWidth=3;fillColor=#8BE9FD;fontSize=13;fontColor=#F8F8F2;align=right;" parent="1" vertex="1"><mxGeometry x="-394" y="-76.5" width="20" height="20" as="geometry"/></mxCell><mxCell id="74" value="Implementation" style="text;html=1;resizable=0;points=[];autosize=1;align=left;verticalAlign=middle;spacingTop=-4;fontSize=13;fontColor=#F8F8F2;" parent="1" vertex="1"><mxGeometry x="-372" y="-74.5" width="99" height="16" as="geometry"/></mxCell><mxCell id="75" value="" style="rounded=0;whiteSpace=wrap;html=1;strokeColor=none;strokeWidth=3;fillColor=#50FA7B;fontSize=13;fontColor=#F8F8F2;align=right;" parent="1" vertex="1"><mxGeometry x="-394" y="-165.5" width="20" height="20" as="geometry"/></mxCell><mxCell id="76" value="Layer" style="text;html=1;resizable=0;points=[];autosize=1;align=left;verticalAlign=middle;spacingTop=-4;fontSize=13;fontColor=#F8F8F2;" parent="1" vertex="1"><mxGeometry x="-372" y="-163.5" width="43" height="16" as="geometry"/></mxCell><mxCell id="113" value="" style="rounded=0;whiteSpace=wrap;html=1;strokeColor=none;strokeWidth=3;fillColor=#FF5555;fontSize=13;fontColor=#F8F8F2;align=right;" parent="1" vertex="1"><mxGeometry x="-394" y="-45.5" width="20" height="20" as="geometry"/></mxCell><mxCell id="114" value="External Lib" style="text;html=1;resizable=0;points=[];autosize=1;align=left;verticalAlign=middle;spacingTop=-4;fontSize=13;fontColor=#F8F8F2;" parent="1" vertex="1"><mxGeometry x="-372" y="-43.5" width="79" height="16" as="geometry"/></mxCell><mxCell id="153" style="edgeStyle=orthogonalEdgeStyle;rounded=0;orthogonalLoop=1;jettySize=auto;html=1;exitX=0;exitY=0.5;exitDx=0;exitDy=0;entryX=1;entryY=0.5;entryDx=0;entryDy=0;fontSize=13;fontColor=#F8F8F2;strokeWidth=2;strokeColor=#BD93F9;" parent="1" edge="1"><mxGeometry relative="1" as="geometry"><mxPoint x="-102" y="213" as="targetPoint"/></mxGeometry></mxCell><mxCell id="154" style="edgeStyle=orthogonalEdgeStyle;rounded=0;orthogonalLoop=1;jettySize=auto;html=1;exitX=1;exitY=0.5;exitDx=0;exitDy=0;entryX=0;entryY=0.5;entryDx=0;entryDy=0;strokeColor=#BD93F9;strokeWidth=2;fontSize=13;fontColor=#F8F8F2;" parent="1" edge="1"><mxGeometry relative="1" as="geometry"><mxPoint x="94" y="213" as="sourcePoint"/></mxGeometry></mxCell><mxCell id="211" value="Produto&#10;" style="swimlane;fontStyle=1;align=center;verticalAlign=top;childLayout=stackLayout;horizontal=1;startSize=26;horizontalStack=0;resizeParent=1;resizeParentMax=0;resizeLast=0;collapsible=1;marginBottom=0;strokeColor=#FF79C6;fillColor=#FF79C6;" parent="1" vertex="1"><mxGeometry x="-404.5" y="43" width="164" height="120" as="geometry"/></mxCell><mxCell id="212" value="- nome: String" style="text;strokeColor=none;fillColor=none;align=left;verticalAlign=top;spacingLeft=4;spacingRight=4;overflow=hidden;rotatable=0;points=[[0,0.5],[1,0.5]];portConstraint=eastwest;fontStyle=0;fontColor=#FFFFFF;" parent="211" vertex="1"><mxGeometry y="26" width="164" height="22" as="geometry"/></mxCell><mxCell id="216" value="- estado: String" style="text;strokeColor=none;fillColor=none;align=left;verticalAlign=top;spacingLeft=4;spacingRight=4;overflow=hidden;rotatable=0;points=[[0,0.5],[1,0.5]];portConstraint=eastwest;fontStyle=0;fontColor=#FFFFFF;" parent="211" vertex="1"><mxGeometry y="48" width="164" height="20" as="geometry"/></mxCell><mxCell id="217" value="- salario: Double" style="text;strokeColor=none;fillColor=none;align=left;verticalAlign=top;spacingLeft=4;spacingRight=4;overflow=hidden;rotatable=0;points=[[0,0.5],[1,0.5]];portConstraint=eastwest;fontColor=#FFFFFF;" parent="211" vertex="1"><mxGeometry y="68" width="164" height="21" as="geometry"/></mxCell><mxCell id="218" value="- meioDePagamento: int" style="text;strokeColor=none;fillColor=none;align=left;verticalAlign=top;spacingLeft=4;spacingRight=4;overflow=hidden;rotatable=0;points=[[0,0.5],[1,0.5]];portConstraint=eastwest;fontColor=#FFFFFF;" parent="211" vertex="1"><mxGeometry y="89" width="164" height="21" as="geometry"/></mxCell><mxCell id="213" value="" style="line;strokeWidth=1;fillColor=none;align=left;verticalAlign=middle;spacingTop=-1;spacingLeft=3;spacingRight=3;rotatable=0;labelPosition=right;points=[];portConstraint=eastwest;strokeColor=#FFFFFF;" parent="211" vertex="1"><mxGeometry y="110" width="164" height="10" as="geometry"/></mxCell><mxCell id="219" value="CalculadoraDePrecos" style="swimlane;fontStyle=1;align=center;verticalAlign=top;childLayout=stackLayout;horizontal=1;startSize=26;horizontalStack=0;resizeParent=1;resizeParentMax=0;resizeLast=0;collapsible=1;marginBottom=0;strokeColor=#FF79C6;fillColor=#FF79C6;" parent="1" vertex="1"><mxGeometry x="-404.5" y="217" width="160" height="60" as="geometry"/></mxCell><mxCell id="221" value="" style="line;strokeWidth=1;fillColor=none;align=left;verticalAlign=middle;spacingTop=-1;spacingLeft=3;spacingRight=3;rotatable=0;labelPosition=right;points=[];portConstraint=eastwest;" parent="219" vertex="1"><mxGeometry y="26" width="160" height="8" as="geometry"/></mxCell><mxCell id="222" value="+ calcula(Produto): double" style="text;strokeColor=none;fillColor=none;align=left;verticalAlign=top;spacingLeft=4;spacingRight=4;overflow=hidden;rotatable=0;points=[[0,0.5],[1,0.5]];portConstraint=eastwest;fontColor=#FFFFFF;" parent="219" vertex="1"><mxGeometry y="34" width="160" height="26" as="geometry"/></mxCell><mxCell id="223" style="edgeStyle=orthogonalEdgeStyle;rounded=0;orthogonalLoop=1;jettySize=auto;html=1;exitX=0.5;exitY=1;exitDx=0;exitDy=0;entryX=0.5;entryY=0;entryDx=0;entryDy=0;strokeColor=#FF79C6;strokeWidth=3;" parent="1" source="211" target="219" edge="1"><mxGeometry relative="1" as="geometry"><mxPoint x="-568" y="86" as="sourcePoint"/><mxPoint x="-568" y="42" as="targetPoint"/><Array as="points"><mxPoint x="-324" y="163"/></Array></mxGeometry></mxCell><mxCell id="224" value="Frete" style="swimlane;fontStyle=1;align=center;verticalAlign=top;childLayout=stackLayout;horizontal=1;startSize=26;horizontalStack=0;resizeParent=1;resizeParentMax=0;resizeLast=0;collapsible=1;marginBottom=0;strokeColor=#FF79C6;fillColor=#FF79C6;" parent="1" vertex="1"><mxGeometry x="-693" y="224" width="224" height="62" as="geometry"/></mxCell><mxCell id="229" value="" style="line;strokeWidth=1;fillColor=none;align=left;verticalAlign=middle;spacingTop=-1;spacingLeft=3;spacingRight=3;rotatable=0;labelPosition=right;points=[];portConstraint=eastwest;strokeColor=#FFFFFF;" parent="224" vertex="1"><mxGeometry y="26" width="224" height="10" as="geometry"/></mxCell><mxCell id="230" value="+ calculaFrete(String estado): double" style="text;strokeColor=none;fillColor=none;align=left;verticalAlign=top;spacingLeft=4;spacingRight=4;overflow=hidden;rotatable=0;points=[[0,0.5],[1,0.5]];portConstraint=eastwest;fontColor=#FFFFFF;" parent="224" vertex="1"><mxGeometry y="36" width="224" height="26" as="geometry"/></mxCell><mxCell id="231" style="edgeStyle=orthogonalEdgeStyle;rounded=0;orthogonalLoop=1;jettySize=auto;html=1;entryX=-0.003;entryY=0.192;entryDx=0;entryDy=0;strokeColor=#FF79C6;strokeWidth=3;entryPerimeter=0;" parent="1" target="222" edge="1"><mxGeometry relative="1" as="geometry"><mxPoint x="-460" y="256" as="sourcePoint"/><mxPoint x="-314" y="227" as="targetPoint"/><Array as="points"><mxPoint x="-468" y="256"/></Array></mxGeometry></mxCell><mxCell id="232" value="TabelaDePrecoAVista" style="swimlane;fontStyle=1;align=center;verticalAlign=top;childLayout=stackLayout;horizontal=1;startSize=26;horizontalStack=0;resizeParent=1;resizeParentMax=0;resizeLast=0;collapsible=1;marginBottom=0;strokeColor=#FF79C6;fillColor=#FF79C6;" parent="1" vertex="1"><mxGeometry x="-613" y="348" width="226" height="62" as="geometry"/></mxCell><mxCell id="233" value="" style="line;strokeWidth=1;fillColor=none;align=left;verticalAlign=middle;spacingTop=-1;spacingLeft=3;spacingRight=3;rotatable=0;labelPosition=right;points=[];portConstraint=eastwest;strokeColor=#FFFFFF;" parent="232" vertex="1"><mxGeometry y="26" width="226" height="10" as="geometry"/></mxCell><mxCell id="234" value="+ calculaDesconto(double valor): double" style="text;strokeColor=none;fillColor=none;align=left;verticalAlign=top;spacingLeft=4;spacingRight=4;overflow=hidden;rotatable=0;points=[[0,0.5],[1,0.5]];portConstraint=eastwest;fontColor=#FFFFFF;" parent="232" vertex="1"><mxGeometry y="36" width="226" height="26" as="geometry"/></mxCell><mxCell id="235" value="TabelaDePrecoAPrazo" style="swimlane;fontStyle=1;align=center;verticalAlign=top;childLayout=stackLayout;horizontal=1;startSize=26;horizontalStack=0;resizeParent=1;resizeParentMax=0;resizeLast=0;collapsible=1;marginBottom=0;strokeColor=#FF79C6;fillColor=#FF79C6;" parent="1" vertex="1"><mxGeometry x="-341" y="348" width="225" height="62" as="geometry"/></mxCell><mxCell id="236" value="" style="line;strokeWidth=1;fillColor=none;align=left;verticalAlign=middle;spacingTop=-1;spacingLeft=3;spacingRight=3;rotatable=0;labelPosition=right;points=[];portConstraint=eastwest;strokeColor=#FFFFFF;" parent="235" vertex="1"><mxGeometry y="26" width="225" height="10" as="geometry"/></mxCell><mxCell id="237" value="+ calculaDesconto(double valor): double" style="text;strokeColor=none;fillColor=none;align=left;verticalAlign=top;spacingLeft=4;spacingRight=4;overflow=hidden;rotatable=0;points=[[0,0.5],[1,0.5]];portConstraint=eastwest;fontColor=#FFFFFF;" parent="235" vertex="1"><mxGeometry y="36" width="225" height="26" as="geometry"/></mxCell><mxCell id="239" style="edgeStyle=orthogonalEdgeStyle;rounded=0;orthogonalLoop=1;jettySize=auto;html=1;exitX=0.5;exitY=0;exitDx=0;exitDy=0;entryX=0.516;entryY=1.038;entryDx=0;entryDy=0;strokeColor=#FF79C6;strokeWidth=3;entryPerimeter=0;" parent="1" source="232" target="222" edge="1"><mxGeometry relative="1" as="geometry"><mxPoint x="-312" y="173" as="sourcePoint"/><mxPoint x="-314" y="227" as="targetPoint"/><Array as="points"><mxPoint x="-500" y="305"/><mxPoint x="-322" y="305"/></Array></mxGeometry></mxCell><mxCell id="240" style="edgeStyle=orthogonalEdgeStyle;rounded=0;orthogonalLoop=1;jettySize=auto;html=1;exitX=0.5;exitY=0;exitDx=0;exitDy=0;entryX=0.503;entryY=1.192;entryDx=0;entryDy=0;strokeColor=#FF79C6;strokeWidth=3;entryPerimeter=0;" parent="1" source="235" target="222" edge="1"><mxGeometry relative="1" as="geometry"><mxPoint x="-490" y="358" as="sourcePoint"/><mxPoint x="-312" y="288" as="targetPoint"/><Array as="points"><mxPoint x="-228" y="307"/><mxPoint x="-324" y="307"/></Array></mxGeometry></mxCell></root></mxGraphModel></diagram></mxfile>